<svg width="38" height="38" viewBox="0 0 38 38" fill="none" xmlns="http://www.w3.org/2000/svg">
<rect width="38" height="38" rx="6"/>
<path d="M19.4851 18.2741C16.6606 17.5399 15.7523 16.7809 15.7523 15.5989C15.7523 14.2426 17.009 13.297 19.1118 13.297C21.3266 13.297 22.1478 14.3546 22.2225 15.91H24.9723C24.8852 13.7698 23.5787 11.8039 20.9782 11.1693V8.44434H17.2454V11.132C14.8315 11.6546 12.8905 13.2223 12.8905 15.6238C12.8905 18.498 15.267 19.9289 18.7385 20.7626C21.8492 21.5092 22.4713 22.6041 22.4713 23.7613C22.4713 24.6198 21.8617 25.9885 19.1118 25.9885C16.5486 25.9885 15.5408 24.8438 15.4039 23.3756H12.6665C12.8158 26.1005 14.8564 27.631 17.2454 28.1411V30.8412H20.9782V28.166C23.4046 27.7056 25.3332 26.2996 25.3332 23.7489C25.3332 20.2151 22.3096 19.0082 19.4851 18.2741Z" fill="white"/>
</svg>
