<svg width="38" height="38" viewBox="0 0 38 38" fill="none" xmlns="http://www.w3.org/2000/svg">
<rect width="38" height="38" rx="6"/>
<path d="M31.8333 14.1112C31.8333 15.4556 30.7833 16.5556 29.5 16.5556C29.29 16.5556 29.0916 16.5312 28.905 16.4701L24.7516 20.809C24.81 21.0045 24.8333 21.2245 24.8333 21.4445C24.8333 22.789 23.7833 23.889 22.5 23.889C21.2166 23.889 20.1666 22.789 20.1666 21.4445C20.1666 21.2245 20.19 21.0045 20.2483 20.809L17.2733 17.6923C17.0866 17.7534 16.8766 17.7779 16.6666 17.7779C16.4566 17.7779 16.2466 17.7534 16.06 17.6923L10.7516 23.2656C10.81 23.4612 10.8333 23.669 10.8333 23.889C10.8333 25.2334 9.78329 26.3334 8.49996 26.3334C7.21663 26.3334 6.16663 25.2334 6.16663 23.889C6.16663 22.5445 7.21663 21.4445 8.49996 21.4445C8.70996 21.4445 8.90829 21.469 9.09496 21.5301L14.415 15.969C14.3566 15.7734 14.3333 15.5534 14.3333 15.3334C14.3333 13.989 15.3833 12.889 16.6666 12.889C17.95 12.889 19 13.989 19 15.3334C19 15.5534 18.9766 15.7734 18.9183 15.969L21.8933 19.0856C22.08 19.0245 22.29 19.0001 22.5 19.0001C22.71 19.0001 22.92 19.0245 23.1066 19.0856L27.2483 14.7345C27.19 14.539 27.1666 14.3312 27.1666 14.1112C27.1666 12.7667 28.2166 11.6667 29.5 11.6667C30.7833 11.6667 31.8333 12.7667 31.8333 14.1112Z" fill="white"/>
</svg>
